#!OML:ASF H:\Pregnant\Project 1\Capture day 1\Session 1\femalepreg.ASF
:FULLY-SPECIFIED
:DEGREES
142
root 8.53755 14.1684 21.1116 -90.3675 -9.8761 -178.896
lowerback -4.12017 0.849956 2.25876
upperback -3.45829 0.884884 2.50819
thorax -1.24633 0.336449 1.33722
lowerneck -24.6155 3.84239 -2.33419
upperneck -0.395091 5.19959 -4.51754
head 3.71185 1.87605 -0.578921
rclavicle -1.39149e-015 -9.0944e-015
rhumerus 51.0367 11.2748 -66.5942
rradius 35.5031
rwrist -19.4847
rhand -18.0421 -22.2107
rfingers 7.12502
rthumb 8.2297 -52.0304
lclavicle -1.39149e-015 -9.0944e-015
lhumerus 41.2041 -18.1877 77.3598
lradius 32.1994
lwrist 54.6793
lhand -33.8694 -3.83358
lfingers 7.12502
lthumb -7.05346 26.0289
rfemur -120.367 -15.7786 5.0148
rtibia 39.5829
rfoot 2.35943 -19.4541
rtoes -27.7154
lfemur -119.368 17.1868 -0.558862
ltibia 36.5795
lfoot 3.96124 19.9285
ltoes -34.1336
143
root 8.53738 14.1608 21.1053 -90.0286 -9.86829 -178.77
lowerback -3.86325 0.895727 2.17621
upperback -3.42994 0.96366 2.47234
thorax -1.36183 0.379337 1.34556
lowerneck -24.7276 3.81533 -2.39622
upperneck -0.64876 5.1325 -4.39678
head 3.64017 1.84199 -0.539849
rclavicle -1.03368e-014 4.96962e-016
rhumerus 51.9335 10.9058 -66.7349
rradius 34.8575
rwrist -19.5011
rhand -18.1844 -22.3296
rfingers 7.12502
rthumb 8.09241 -52.1546
lclavicle -1.03368e-014 4.96962e-016
lhumerus 41.5444 -18.011 77.6017
lradius 32.4182
lwrist 55.0269
lhand -33.9504 -3.68901
lfingers 7.12502
lthumb -7.13167 26.1708
rfemur -120.682 -15.7406 5.10681
rtibia 39.4402
rfoot 2.42083 -19.4392
rtoes -27.7478
lfemur -119.63 17.4853 -0.364449
ltibia 36.6753
lfoot 3.91151 20.1868
ltoes -34.1111
144
root 8.53809 14.1546 21.0988 -89.7127 -9.86662 -178.651
lowerback -3.60029 0.935437 2.09509
upperback -3.37316 1.03449 2.44187
thorax -1.45165 0.419185 1.35794
lowerneck -24.9414 3.79083 -2.4666
upperneck -0.860024 5.07325 -4.2699
head 3.59541 1.80791 -0.49555
rclavicle 1.39149e-015 -3.71976e-014
rhumerus 52.8463 10.5365 -66.8723
rradius 34.2571
rwrist -19.4963
rhand -18.3006 -22.4425
rfingers 7.12502
rthumb 7.98022 -52.2718
lclavicle 1.39149e-015 -3.71976e-014
lhumerus 41.9156 -17.8254 77.8298
lradius 32.6343
lwrist 55.3808
lhand -34.0673 -3.54928
lfingers 7.12502
lthumb -7.2445 26.3067
rfemur -120.967 -15.6991 5.19161
rtibia 39.2969
rfoot 2.47535 -19.4289
rtoes -27.7758
lfemur -119.842 17.7768 -0.136636
ltibia 36.7426
lfoot 3.86306 20.4665
ltoes -34.0666
145
root 8.53965 14.1491 21.0921 -89.4124 -9.87402 -178.543
lowerback -3.34239 0.964787 2.01332
upperback -3.28283 1.09099 2.42536
thorax -1.50448 0.452848 1.38452
lowerneck -25.2988 3.77238 -2.56287
upperneck -1.01341 5.03153 -4.12942
head 3.58717 1.7775 -0.439616
rclavicle -1.59028e-015 -1.36167e-014
rhumerus 53.7917 10.1736 -67.0013
rradius 33.7059
rwrist -19.4398
rhand -18.2818 -22.6258
rfingers 7.12502
rthumb 7.99832 -52.4545
lclavicle -1.59028e-015 -1.36167e-014
lhumerus 42.3777 -17.6286 77.9831
lradius 32.8312
lwrist 55.8058
lhand -34.2596 -3.35482
lfingers 7.12502
lthumb -7.43012 26.4947
rfemur -121.232 -15.6584 5.27701
rtibia 39.1598
rfoot 2.52081 -19.4233
rtoes -27.788
lfemur -120.018 18.0608 0.116583
ltibia 36.7841
lfoot 3.81796 20.7581
ltoes -34.0106
146
root 8.54205 14.1438 21.0856 -89.1166 -9.89375 -178.44
lowerback -3.09559 0.993218 1.93967
upperback -3.19043 1.14441 2.42143
thorax -1.54929 0.484554 1.41933
lowerneck -25.6652 3.74895 -2.68673
upperneck -1.15322 4.99237 -3.98352
head 3.58326 1.74827 -0.377283
rclavicle 5.1684e-015 -5.19325e-015
rhumerus 54.7092 9.8323 -67.1058
rradius 33.2114
rwrist -19.361
rhand -18.131 -22.8895
rfingers 7.12502
rthumb 8.14392 -52.7125
lclavicle 5.1684e-015 -5.19325e-015
lhumerus 42.8764 -17.4493 78.0827
lradius 33.0146
lwrist 56.3047
lhand -34.5951 -3.05554
lfingers 7.12502
lthumb -7.75396 26.7823
rfemur -121.499 -15.6172 5.37608
rtibia 39.0354
rfoot 2.55714 -19.415
rtoes -27.7932
lfemur -120.18 18.3439 0.382788
ltibia 36.8092
lfoot 3.78109 21.049
ltoes -33.96
147
root 8.54521 14.1386 21.0793 -88.8262 -9.92269 -178.342
lowerback -2.86019 1.02329 1.87192
upperback -3.09312 1.19827 2.43064
thorax -1.58306 0.51614 1.46429
lowerneck -26.0559 3.71578 -2.85286
upperneck -1.2742 4.95401 -3.82633
head 3.58678 1.71921 -0.304452
rclavicle 8.15017e-015 -3.926e-015
rhumerus 55.6015 9.51438 -67.1666
rradius 32.7748
rwrist -19.2885
rhand -17.8988 -23.1842
rfingers 7.12502
rthumb 8.36796 -52.9985
lclavicle 8.15017e-015 -3.926e-015
lhumerus 43.4127 -17.2823 78.1467
lradius 33.1824
lwrist 56.8514
lhand -34.7373 -2.82752
lfingers 7.12502
lthumb -7.8912 27.0052
rfemur -121.774 -15.5715 5.49707
rtibia 38.9276
rfoot 2.5878 -19.3945
rtoes -27.8045
lfemur -120.326 18.6302 0.671354
ltibia 36.8263
lfoot 3.74578 21.3501
ltoes -33.9089
148
root 8.5492 14.1325 21.0735 -88.5316 -9.96453 -178.242
lowerback -2.65001 1.05898 1.8136
upperback -2.99862 1.25697 2.45451
thorax -1.60603 0.549402 1.51927
lowerneck -26.4489 3.67498 -3.05304
upperneck -1.38153 4.91847 -3.67261
head 3.59385 1.69131 -0.227061
rclavicle 1.68967e-014 1.17283e-014
rhumerus 56.4598 9.2371 -67.1548
rradius 32.3886
rwrist -19.3048
rhand -17.7096 -23.3957
rfingers 7.12502
rthumb 8.55058 -53.2026
lclavicle 1.68967e-014 1.17283e-014
lhumerus 43.9579 -17.1269 78.2011
lradius 33.3415
lwrist 57.412
lhand -34.6915 -2.67358
lfingers 7.12502
lthumb -7.84699 27.1608
rfemur -122.073 -15.5169 5.65288
rtibia 38.8377
rfoot 2.61839 -19.3549
rtoes -27.8304
lfemur -120.485 18.9253 0.949428
ltibia 36.8446
lfoot 3.71474 21.63
ltoes -33.8713
149
root 8.55393 14.1256 21.068 -88.2377 -10.0173 -178.141
lowerback -2.46032 1.09515 1.76374
upperback -2.90526 1.31437 2.48775
thorax -1.61895 0.581464 1.57925
lowerneck -26.9019 3.62942 -3.27849
upperneck -1.42099 4.88978 -3.50431
head 3.60647 1.66615 -0.150766
rclavicle 1.5704e-014 3.17931e-014
rhumerus 57.2884 9.00982 -67.0678
rradius 32.0505
rwrist -19.4167
rhand -17.5614 -23.5427
rfingers 7.12502
rthumb 8.69362 -53.3437
lclavicle 1.5704e-014 3.17931e-014
lhumerus 44.4844 -16.9691 78.2602
lradius 33.5052
lwrist 57.9465
lhand -34.7283 -2.42034
lfingers 7.12502
lthumb -7.88252 27.4127
rfemur -122.393 -15.4499 5.85429
rtibia 38.7643
rfoot 2.64927 -19.2806
rtoes -27.884
lfemur -120.643 19.2299 1.24248
ltibia 36.867
lfoot 3.68486 21.9117
ltoes -33.843
150
root 8.55932 14.1189 21.0626 -87.9593 -10.0815 -178.038
lowerback -2.28221 1.1372 1.72073
upperback -2.81041 1.378 2.53184
thorax -1.6243 0.616128 1.64664
lowerneck -27.2887 3.58456 -3.49703
upperneck -1.51005 4.86088 -3.37232
head 3.61811 1.64056 -0.0764773
rclavicle 9.93923e-016 2.2649e-014
rhumerus 58.078 8.80904 -66.9189
rradius 31.7541
rwrist -19.5846
rhand -17.4398 -23.6046
rfingers 7.12502
rthumb 8.81091 -53.4007
lclavicle 9.93923e-016 2.2649e-014
lhumerus 44.965 -16.809 78.3819
lradius 33.6735
lwrist 58.4165
lhand -34.5148 -2.24833
lfingers 7.12502
lthumb -7.67647 27.5923
rfemur -122.717 -15.3646 6.09756
rtibia 38.7043
rfoot 2.67732 -19.1713
rtoes -27.9576
lfemur -120.784 19.5392 1.55554
ltibia 36.8945
lfoot 3.64941 22.1986
ltoes -33.8141
151
root 8.56527 14.1121 21.0574 -87.6926 -10.1561 -177.935
lowerback -2.11436 1.17893 1.69235
upperback -2.70945 1.44005 2.57725
thorax -1.61748 0.649587 1.70722
lowerneck -27.6848 3.5438 -3.70448
upperneck -1.59538 4.83602 -3.25231
head 3.63244 1.61568 -0.00726749
rclavicle -5.56597e-015 -2.86001e-014
rhumerus 58.8447 8.63105 -66.7374
rradius 31.4909
rwrist -19.787
rhand -17.346 -23.5721
rfingers 7.12502
rthumb 8.9015 -53.3643
lclavicle -5.56597e-015 -2.86001e-014
lhumerus 45.4103 -16.6346 78.5412
lradius 33.8546
lwrist 58.8337
lhand -34.2236 -2.00996
lfingers 7.12502
lthumb -7.39536 27.8408
rfemur -123.042 -15.2663 6.37186
rtibia 38.6537
rfoot 2.70136 -19.0367
rtoes -28.042
lfemur -120.908 19.8519 1.89046
ltibia 36.9243
lfoot 3.61492 22.4913
ltoes -33.791
152
root 8.57164 14.1056 21.0521 -87.4427 -10.2407 -177.833
lowerback -1.94461 1.221 1.67722
upperback -2.60638 1.50204 2.62253
thorax -1.60942 0.682569 1.76004
lowerneck -27.9961 3.49788 -3.82964
upperneck -1.80213 4.77454 -3.3176
head 3.60462 1.55911 -0.0157521
rclavicle -1.0138e-014 5.46658e-016
rhumerus 59.5773 8.46433 -66.5432
rradius 31.2641
rwrist -19.9799
rhand -17.2201 -23.5155
rfingers 7.12502
rthumb 9.02298 -53.3025
lclavicle -1.0138e-014 5.46658e-016
lhumerus 45.7921 -16.4458 78.7626
lradius 34.0573
lwrist 59.2095
lhand -33.8751 -1.8184
lfingers 7.12502
lthumb -7.05905 28.0439
rfemur -123.355 -15.1566 6.66196
rtibia 38.608
rfoot 2.72195 -18.8902
rtoes -28.1295
lfemur -121.007 20.1652 2.25306
ltibia 36.9512
lfoot 3.58235 22.7958
ltoes -33.7661
153
root 8.57853 14.0997 21.0468 -87.2129 -10.3316 -177.728
lowerback -1.75911 1.2632 1.66787
upperback -2.505 1.56432 2.67037
thorax -1.61202 0.71535 1.81172
lowerneck -28.2566 3.45186 -3.89503
upperneck -2.08603 4.69051 -3.51655
head 3.55099 1.48088 -0.0798526
rclavicle 9.74045e-015 -1.6524e-015
rhumerus 60.2766 8.30909 -66.3402
rradius 31.069
rwrist -20.133
rhand -17.0446 -23.4458
rfingers 7.12502
rthumb 9.1923 -53.2255
lclavicle 9.74045e-015 -1.6524e-015
lhumerus 46.1411 -16.248 79.0029
lradius 34.2758
lwrist 59.62
lhand -33.4203 -1.73388
lfingers 7.12502
lthumb -6.61996 28.1426
rfemur -123.638 -15.0417 6.91315
rtibia 38.5672
rfoot 2.7402 -18.7814
rtoes -28.2001
lfemur -121.082 20.4761 2.61636
ltibia 36.9725
lfoot 3.55366 23.0906
ltoes -33.7391
154
root 8.58582 14.0945 21.0413 -87.0025 -10.4279 -177.625
lowerback -1.54834 1.30343 1.66205
upperback -2.40863 1.62461 2.72179
thorax -1.63408 0.746832 1.86432
lowerneck -28.4785 3.40832 -3.9071
upperneck -2.43432 4.58826 -3.84186
head 3.4768 1.38312 -0.195525
rclavicle -1.0138e-014 3.21161e-015
rhumerus 60.9424 8.17348 -66.1126
rradius 30.9113
rwrist -20.2806
rhand -16.8115 -23.3999
rfingers 7.12502
rthumb 9.41718 -53.1695
lclavicle -1.0138e-014 3.21161e-015
lhumerus 46.4571 -16.0391 79.2569
lradius 34.5113
lwrist 60.0857
lhand -33.0793 -1.71574
lfingers 7.12502
lthumb -6.29075 28.1709
rfemur -123.887 -14.9263 7.12485
rtibia 38.5292
rfoot 2.75407 -18.7107
rtoes -28.2474
lfemur -121.124 20.7827 2.99687
ltibia 36.9799
lfoot 3.53178 23.3942
ltoes -33.7014
155
root 8.5935 14.0897 21.0356 -86.8125 -10.5273 -177.522
lowerback -1.30392 1.34283 1.64764
upperback -2.32022 1.68481 2.78098
thorax -1.68386 0.778129 1.92863
lowerneck -28.712 3.3689 -3.90581
upperneck -2.77751 4.48594 -4.20775
head 3.40697 1.28074 -0.326319
rclavicle -3.77691e-015 -2.80038e-014
rhumerus 61.5714 8.06186 -65.8415
rradius 30.7939
rwrist -20.465
rhand -16.5526 -23.3737
rfingers 7.12502
rthumb 9.66703 -53.1319
lclavicle -3.77691e-015 -2.80038e-014
lhumerus 46.736 -15.8187 79.5394
lradius 34.7628
lwrist 60.5905
lhand -32.6994 -1.84185
lfingers 7.12502
lthumb -5.92396 28.0553
rfemur -124.103 -14.8117 7.29007
rtibia 38.4972
rfoot 2.76683 -18.683
rtoes -28.2864
lfemur -121.137 21.0836 3.3781
ltibia 36.9679
lfoot 3.51076 23.6934
ltoes -33.6344
